<?xml version="1.0" encoding="UTF-8" standalone="no"?>
<!-- Created with Inkscape (http://www.inkscape.org/) -->

<svg
   version="1.1"
   id="svg1"
   width="891.88812"
   height="204.66385"
   viewBox="0 0 891.88812 204.66385"
   sodipodi:docname="FormeducWeb.svg"
   inkscape:version="1.4.2 (f4327f4, 2025-05-13)"
   xmlns:inkscape="http://www.inkscape.org/namespaces/inkscape"
   xmlns:sodipodi="http://sodipodi.sourceforge.net/DTD/sodipodi-0.dtd"
   xmlns="http://www.w3.org/2000/svg"
   xmlns:svg="http://www.w3.org/2000/svg">
  <sodipodi:namedview
     id="namedview1"
     pagecolor="#ffffff"
     bordercolor="#000000"
     borderopacity="0.25"
     inkscape:showpageshadow="2"
     inkscape:pageopacity="0.0"
     inkscape:pagecheckerboard="0"
     inkscape:deskcolor="#d1d1d1"
     inkscape:zoom="0.83105469"
     inkscape:cx="438.59929"
     inkscape:cy="98.068155"
     inkscape:window-width="1920"
     inkscape:window-height="1111"
     inkscape:window-x="-9"
     inkscape:window-y="-9"
     inkscape:window-maximized="1"
     inkscape:current-layer="svg1" />
  <defs
     id="defs1" />
  <g
     id="g1"
     transform="translate(-73.423032,-414.32635)">
    <g
       id="g2"
       transform="translate(8.4230317,54.148062)">
      <path
         style="fill:#5497df"
         d="m 411.76166,564.29274 c 1.24391,-0.23919 3.04391,-0.23011 4,0.0202 0.95609,0.25029 -0.0617,0.446 -2.26166,0.4349 -2.2,-0.0111 -2.98225,-0.21589 -1.73834,-0.45508 z m 151.98834,0.045 c 0.6875,-0.27741 1.8125,-0.27741 2.5,0 0.6875,0.27741 0.125,0.50439 -1.25,0.50439 -1.375,0 -1.9375,-0.22698 -1.25,-0.50439 z m 83.01166,-0.045 c 1.24391,-0.23919 3.04391,-0.23011 4,0.0202 0.95609,0.25029 -0.0617,0.446 -2.26166,0.4349 -2.2,-0.0111 -2.98225,-0.21589 -1.73834,-0.45508 z m 192,0 c 1.24391,-0.23919 3.04391,-0.23011 4,0.0202 0.95609,0.25029 -0.0617,0.446 -2.26166,0.4349 -2.2,-0.0111 -2.98225,-0.21589 -1.73834,-0.45508 z m 82.98834,0.002 c 1.2375,-0.23836 3.2625,-0.23836 4.5,0 1.2375,0.23835 0.225,0.43337 -2.25,0.43337 -2.475,0 -3.4875,-0.19502 -2.25,-0.43337 z M 366.33621,554 c 0,-4.125 0.17651,-5.8125 0.39226,-3.75 0.21574,2.0625 0.21574,5.4375 0,7.5 -0.21575,2.0625 -0.39226,0.375 -0.39226,-3.75 z m 220.74274,5.41667 c 0.048,-1.16495 0.28494,-1.4019 0.60416,-0.60417 0.28887,0.72187 0.25335,1.58438 -0.0789,1.91667 -0.33229,0.33229 -0.56864,-0.25834 -0.52522,-1.3125 z M 581,559.62244 c 0,-0.20765 0.7875,-0.99515 1.75,-1.75 1.58606,-1.24387 1.62143,-1.2085 0.37756,0.37756 C 581.82119,559.91575 581,560.44548 581,559.62244 Z M 885.34941,552 c 0,-4.675 0.17226,-6.5875 0.3828,-4.25 0.21053,2.3375 0.21053,6.1625 0,8.5 -0.21054,2.3375 -0.3828,0.425 -0.3828,-4.25 z m -418.47697,5.25 c -1.24387,-1.58606 -1.2085,-1.62143 0.37756,-0.37756 1.66575,1.30637 2.19548,2.12756 1.37244,2.12756 -0.20765,0 -0.99515,-0.7875 -1.75,-1.75 z m -79.43535,-3.5 -2.93709,-3.25 3.25,2.93709 c 3.02946,2.73778 3.70965,3.56291 2.93709,3.56291 -0.1721,0 -1.6346,-1.4625 -3.25,-3.25 z M 84.413177,538.5 c 10e-4,-9.9 0.150701,-13.81474 0.33256,-8.69942 0.181859,5.11532 0.181001,13.21532 -0.0019,18 -0.182915,4.78468 -0.331708,0.59942 -0.33066,-9.30058 z m 731.459263,15.75 c -1.24387,-1.58606 -1.2085,-1.62143 0.37756,-0.37756 0.9625,0.75485 1.75,1.54235 1.75,1.75 0,0.82304 -0.82119,0.29331 -2.12756,-1.37244 z M 214.38176,539.5 c 0.002,-6.6 0.16382,-9.16987 0.35965,-5.71081 0.19583,3.45905 0.19422,8.85905 -0.004,12 -0.19781,3.14094 -0.35803,0.31081 -0.35606,-6.28919 z m 274.88727,9.80701 c 0.97297,-0.25354 2.32297,-0.23687 3,0.0371 0.67703,0.27393 -0.11903,0.48137 -1.76903,0.46099 -1.65,-0.0204 -2.20394,-0.2445 -1.23097,-0.49804 z M 568.25,548.31067 c 0.9625,-0.25152 2.5375,-0.25152 3.5,0 0.9625,0.25153 0.175,0.45733 -1.75,0.45733 -1.925,0 -2.7125,-0.2058 -1.75,-0.45733 z M 154.87244,545.25 c -1.24387,-1.58606 -1.2085,-1.62143 0.37756,-0.37756 0.9625,0.75485 1.75,1.54235 1.75,1.75 0,0.82304 -0.82119,0.29331 -2.12756,-1.37244 z m 321,-1 c -1.24387,-1.58606 -1.2085,-1.62143 0.37756,-0.37756 0.9625,0.75485 1.75,1.54235 1.75,1.75 0,0.82304 -0.82119,0.29331 -2.12756,-1.37244 z M 667.75,539.33772 c 0.6875,-0.27741 1.8125,-0.27741 2.5,0 0.6875,0.27741 0.125,0.50439 -1.25,0.50439 -1.375,0 -1.9375,-0.22698 -1.25,-0.50439 z m 6,-0.0435 c 1.2375,-0.23836 3.2625,-0.23836 4.5,0 1.2375,0.23835 0.225,0.43337 -2.25,0.43337 -2.475,0 -3.4875,-0.19502 -2.25,-0.43337 z M 602.25218,533.5 c 0.0111,-2.2 0.21589,-2.98225 0.45508,-1.73834 0.23919,1.24391 0.23011,3.04391 -0.0202,4 -0.25029,0.95609 -0.446,-0.0617 -0.4349,-2.26166 z m 300.12958,-9 c 0.002,-6.6 0.16382,-9.16987 0.35965,-5.71081 0.19583,3.45905 0.19422,8.85905 -0.004,12 -0.19781,3.14094 -0.35803,0.31081 -0.35606,-6.28919 z m -770.30281,8.91667 c 0.048,-1.16495 0.28494,-1.4019 0.60416,-0.60417 0.28887,0.72187 0.25335,1.58438 -0.0789,1.91667 -0.3323,0.33229 -0.56864,-0.25834 -0.52522,-1.3125 z M 454.29966,527 c 0,-3.025 0.18747,-4.2625 0.41659,-2.75 0.22913,1.5125 0.22913,3.9875 0,5.5 -0.22912,1.5125 -0.41659,0.275 -0.41659,-2.75 z m 101.01021,-0.5 c 0.006,-3.3 0.1923,-4.52944 0.41486,-2.73209 0.22256,1.79735 0.21797,4.49735 -0.0102,6 -0.22818,1.50265 -0.41027,0.0321 -0.40466,-3.26791 z m 30.0683,-5.5 c 0,-6.325 0.16237,-8.9125 0.36082,-5.75 0.19845,3.1625 0.19845,8.3375 0,11.5 -0.19845,3.1625 -0.36082,0.575 -0.36082,-5.75 z m 25.92149,5 c 0,-3.025 0.18747,-4.2625 0.41659,-2.75 0.22913,1.5125 0.22913,3.9875 0,5.5 -0.22912,1.5125 -0.41659,0.275 -0.41659,-2.75 z m 327.95252,1.5 c 0.0111,-2.2 0.21589,-2.98225 0.45508,-1.73834 0.23919,1.24391 0.23011,3.04391 -0.0202,4 -0.25029,0.95609 -0.446,-0.0617 -0.4349,-2.26166 z m 17.04748,-1.5 c 0,-3.025 0.18747,-4.2625 0.41659,-2.75 0.22913,1.5125 0.22913,3.9875 0,5.5 -0.22912,1.5125 -0.41659,0.275 -0.41659,-2.75 z m -807.22071,-0.58333 c 0.048,-1.16495 0.28494,-1.4019 0.60416,-0.60417 0.28887,0.72187 0.25335,1.58438 -0.0789,1.91667 -0.3323,0.33229 -0.56864,-0.25834 -0.52522,-1.3125 z m 82,0 c 0.048,-1.16495 0.28494,-1.4019 0.60416,-0.60417 0.28887,0.72187 0.25335,1.58438 -0.0789,1.91667 -0.3323,0.33229 -0.56864,-0.25834 -0.52522,-1.3125 z M 874.15789,524 c 0,-1.375 0.22698,-1.9375 0.50439,-1.25 0.27741,0.6875 0.27741,1.8125 0,2.5 -0.27741,0.6875 -0.50439,0.125 -0.50439,-1.25 z m -742.07894,-3.58333 c 0.048,-1.16495 0.28494,-1.4019 0.60416,-0.60417 0.28887,0.72187 0.25335,1.58438 -0.0789,1.91667 -0.3323,0.33229 -0.56864,-0.25834 -0.52522,-1.3125 z m 72,0 c 0.048,-1.16495 0.28494,-1.4019 0.60416,-0.60417 0.28887,0.72187 0.25335,1.58438 -0.0789,1.91667 -0.3323,0.33229 -0.56864,-0.25834 -0.52522,-1.3125 z M 403.25,520.25543 c 4.8125,-0.18331 12.6875,-0.18331 17.5,0 4.8125,0.18332 0.875,0.3333 -8.75,0.3333 -9.625,0 -13.5625,-0.14998 -8.75,-0.3333 z m 434.5625,0.0615 c 0.72187,-0.28887 1.58438,-0.25335 1.91667,0.0789 0.33229,0.33229 -0.25834,0.56864 -1.3125,0.52522 -1.16495,-0.048 -1.4019,-0.28494 -0.60417,-0.60416 z m 6,0 c 0.72187,-0.28887 1.58438,-0.25335 1.91667,0.0789 0.33229,0.33229 -0.25834,0.56864 -1.3125,0.52522 -1.16495,-0.048 -1.4019,-0.28494 -0.60417,-0.60416 z m 5.4375,-0.0331 c 1.5125,-0.22913 3.9875,-0.22913 5.5,0 1.5125,0.22912 0.275,0.41659 -2.75,0.41659 -3.025,0 -4.2625,-0.18747 -2.75,-0.41659 z M 538.32814,513.5 c 0.004,-3.85 0.18518,-5.30246 0.40166,-3.2277 0.21647,2.07477 0.21284,5.22477 -0.008,7 -0.22091,1.77524 -0.39803,0.0777 -0.39359,-3.7723 z m 266.75081,4.91667 c 0.048,-1.16495 0.28494,-1.4019 0.60416,-0.60417 0.28887,0.72187 0.25335,1.58438 -0.0789,1.91667 -0.33229,0.33229 -0.56864,-0.25834 -0.52522,-1.3125 z M 525.35496,508.5 c -0.003,-4.95 0.16605,-7.10108 0.37577,-4.78017 0.20972,2.3209 0.21222,6.3709 0.006,9 C 525.5296,515.34892 525.358,513.45 525.35496,508.5 Z M 668.25,514.27153 c 2.0625,-0.21574 5.4375,-0.21574 7.5,0 2.0625,0.21575 0.375,0.39226 -3.75,0.39226 -4.125,0 -5.8125,-0.17651 -3.75,-0.39226 z M 179.87244,506.25 c -1.24387,-1.58606 -1.2085,-1.62143 0.37756,-0.37756 0.9625,0.75485 1.75,1.54235 1.75,1.75 0,0.82304 -0.82119,0.29331 -2.12756,-1.37244 z M 327,507.62244 c 0,-0.20765 0.7875,-0.99515 1.75,-1.75 1.58606,-1.24387 1.62143,-1.2085 0.37756,0.37756 C 327.82119,507.91575 327,508.44548 327,507.62244 Z M 658.87244,506.25 c -1.24387,-1.58606 -1.2085,-1.62143 0.37756,-0.37756 0.9625,0.75485 1.75,1.54235 1.75,1.75 0,0.82304 -0.82119,0.29331 -2.12756,-1.37244 z m -406.66195,-0.93878 3.7105,-0.42724 0.35817,-8.19199 0.35818,-8.19199 -0.0687,8.5 -0.0687,8.5 -4,0.11923 -4,0.11924 z M 93.75,504.25349 c 6.1875,-0.17544 16.3125,-0.17544 22.5,0 6.1875,0.17545 1.125,0.319 -11.25,0.319 -12.375,0 -17.4375,-0.14355 -11.25,-0.319 z m 823.51903,-1.94648 c 0.97297,-0.25354 2.32297,-0.23687 3,0.0371 0.67703,0.27393 -0.11903,0.48137 -1.76903,0.46099 -1.65,-0.0204 -2.20394,-0.2445 -1.23097,-0.49804 z M 384,501.62244 c 0,-0.20765 0.7875,-0.99515 1.75,-1.75 1.58606,-1.24387 1.62143,-1.2085 0.37756,0.37756 C 384.82119,501.91575 384,502.44548 384,501.62244 Z m 428,0 c 0,-0.20765 0.7875,-0.99515 1.75,-1.75 1.58606,-1.24387 1.62143,-1.2085 0.37756,0.37756 C 812.82119,501.91575 812,502.44548 812,501.62244 Z m 92,-6 c 0,-0.20765 0.7875,-0.99515 1.75,-1.75 1.58606,-1.24387 1.62143,-1.2085 0.37756,0.37756 C 904.82119,495.91575 904,496.44548 904,495.62244 Z m -314.25,-5.35465 c 2.3375,-0.21053 6.1625,-0.21053 8.5,0 2.3375,0.21054 0.425,0.3828 -4.25,0.3828 -4.675,0 -6.5875,-0.17226 -4.25,-0.3828 z m -292.9375,-1.9509 c 0.72187,-0.28887 1.58438,-0.25335 1.91667,0.0789 0.33229,0.33229 -0.25834,0.56864 -1.3125,0.52522 -1.16495,-0.048 -1.4019,-0.28494 -0.60417,-0.60416 z m 9,0 c 0.72187,-0.28887 1.58438,-0.25335 1.91667,0.0789 0.33229,0.33229 -0.25834,0.56864 -1.3125,0.52522 -1.16495,-0.048 -1.4019,-0.28494 -0.60417,-0.60416 z m 103.9375,-0.0226 c 1.2375,-0.23836 3.2625,-0.23836 4.5,0 1.2375,0.23835 0.225,0.43337 -2.25,0.43337 -2.475,0 -3.4875,-0.19502 -2.25,-0.43337 z m 74.51375,-0.0118 c 1.52006,-0.22986 3.77006,-0.22371 5,0.0136 1.22994,0.23736 -0.0138,0.42542 -2.76375,0.41792 -2.75,-0.008 -3.75631,-0.20172 -2.23625,-0.43157 z m 167.54875,0.0345 c 0.72187,-0.28887 1.58438,-0.25335 1.91667,0.0789 0.33229,0.33229 -0.25834,0.56864 -1.3125,0.52522 -1.16495,-0.048 -1.4019,-0.28494 -0.60417,-0.60416 z M 742.5,488 c -0.33992,-0.55 -0.14148,-1 0.44098,-1 0.58246,0 1.05902,0.45 1.05902,1 0,0.55 -0.19844,1 -0.44098,1 -0.24254,0 -0.7191,-0.45 -1.05902,-1 z m 94.76375,0.28242 c 1.52006,-0.22986 3.77006,-0.22371 5,0.0136 1.22994,0.23736 -0.0137,0.42542 -2.76375,0.41792 -2.75,-0.008 -3.75631,-0.20172 -2.23625,-0.43157 z M 885.38854,473.5 c 0.002,-7.15 0.16103,-9.94379 0.35396,-6.20841 0.19293,3.73537 0.19149,9.58537 -0.003,13 -0.19468,3.41462 -0.35253,0.35841 -0.35078,-6.79159 z M 422,460.97217 l -8.5,-0.65522 9.22806,-0.0275 c 5.07543,-0.0151 8.98637,0.36357 8.69098,0.84152 -0.29539,0.47795 -0.62302,0.78516 -0.72806,0.6827 -0.10504,-0.10244 -4.01598,-0.48113 -8.69098,-0.8415 z M 798,461 l -9.5,-0.61717 9.75,-0.19141 c 5.96094,-0.11703 9.75,0.1972 9.75,0.80858 0,0.55 -0.1125,0.91386 -0.25,0.80858 C 807.6125,461.70331 803.225,461.33944 798,461 Z M 81.25,460.2517 c 9.2125,-0.16503 24.2875,-0.16503 33.5,0 9.2125,0.16503 1.675,0.30005 -16.75,0.30005 -18.425,0 -25.9625,-0.13502 -16.75,-0.30005 z m 601.03017,0.012 c 2.6291,-0.20668 6.6791,-0.20418 9,0.006 2.32091,0.20972 0.16983,0.37882 -4.78017,0.37577 -4.95,-0.003 -6.84892,-0.17464 -4.21983,-0.38131 z m 57.49626,0.003 c 2.35204,-0.21124 5.95204,-0.20827 8,0.007 2.04796,0.21487 0.12357,0.38771 -4.27643,0.38408 -4.4,-0.004 -6.07561,-0.17944 -3.72357,-0.39069 z m 149.95127,0.0118 c 1.77523,-0.22091 4.92523,-0.22454 7,-0.008 2.07476,0.21648 0.6223,0.39722 -3.2277,0.40166 -3.85,0.004 -5.54754,-0.17268 -3.7723,-0.39359 z"
         id="path4" />
      <path
         style="fill:#fd8417"
         d="m 726.21584,441.71855 c -8.07999,-8.18162 -7.37693,-10.29895 6.28416,-18.92518 8.6498,-5.46187 16.59524,-8.9823 27,-11.96303 10.75609,-3.08137 37.26779,-3.35436 47.5,-0.4891 14.1047,3.94964 26.51084,9.98337 35.75,17.387 6.06228,4.8579 5.8575,7.77927 -1,14.26629 -6.75206,6.38728 -8.60049,6.39034 -19.06474,0.0315 C 818.18337,439.2904 811.575,435.96248 808,434.63068 c -13.2891,-4.95061 -29.88595,-5.70157 -43,-1.94564 -6.36862,1.824 -18.94746,7.98796 -23.94428,11.73331 -5.46206,4.09407 -8.71482,3.5023 -14.83988,-2.6998 z m -36.29008,-32.37077 c -9.4103,-8.97591 -8.41628,-11.14915 11.07424,-24.21168 19.32155,-12.94928 41.59012,-21.30359 64.45725,-24.1819 12.09802,-1.52278 37.00835,-0.70144 47.54275,1.56758 23.79739,5.12574 52.40282,18.93906 66.75,32.233 5.92054,5.48591 5.68049,7.57632 -1.67576,14.593 -7.14118,6.81153 -9.12584,7.04409 -15.73444,1.84378 -22.57589,-17.76496 -44.67602,-26.38107 -71.42408,-27.84585 -30.4779,-1.66903 -60.34639,7.81365 -83.88954,26.63336 -3.68849,2.94847 -7.29104,5.02093 -8.72788,5.02093 -1.60818,0 -4.47774,-1.93721 -8.37254,-5.65222 z"
         id="path3" />
      <path
         style="fill:#1571d4"
         d="m 159,563.68812 c -10.86359,-3.14034 -17.27645,-7.97721 -21.78065,-16.42796 -8.41997,-15.79748 -5.73833,-37.79381 6.04398,-49.57612 11.30876,-11.30877 32.19988,-12.69125 46.38794,-3.06977 19.43596,13.18031 20.28069,44.95236 1.63159,61.36795 -8.0734,7.10649 -22.46914,10.54274 -32.28286,7.7059 z m 17.32881,-15.05215 c 4.02988,-1.68379 8.10939,-6.40366 9.69965,-11.22221 0.72761,-2.20466 1.04208,-7.25547 0.79849,-12.82485 -0.34293,-7.84076 -0.81361,-9.89043 -3.21039,-13.98023 -4.65975,-7.95127 -14.32602,-10.76458 -23.11656,-6.72795 -7.76963,3.56783 -10.7,9.52674 -10.7,21.75847 0,8.34152 1.24091,13.92077 4.05971,18.25286 3.42078,5.25723 15.25876,7.75659 22.4691,4.74391 z m 225.55347,13.98345 c -17.43372,-6.22994 -27.72447,-25.49545 -23.9275,-44.79509 2.32851,-11.83558 8.54962,-20.48259 18.35779,-25.51635 4.08186,-2.0949 6.99899,-2.75155 13.68743,-3.08106 10.05746,-0.4955 17.19278,1.67835 23.64951,7.20507 C 440.75106,502.51065 446,515.31043 446,526.54922 V 531 h -25.63167 -25.63167 l 0.51751,3.85829 c 1.4032,10.46167 7.8905,16.14171 18.4358,16.14171 6.86847,0 11.43212,-2.38775 14.81003,-7.74879 1.92278,-3.05161 2.26323,-3.17566 8.81739,-3.21269 6.60933,-0.0373 6.7969,0.0302 6.14616,2.21148 -2.41268,8.08744 -11.37977,17.51125 -19.19716,20.1749 -5.54702,1.89006 -17.35227,1.99265 -22.38411,0.19452 z M 428.99442,518.75 c -0.0115,-4.63908 -2.08615,-9.44658 -5.50781,-12.76298 -3.18784,-3.08978 -4.19002,-3.4602 -10.25978,-3.79215 -5.76103,-0.31507 -7.22934,-0.0313 -10.22683,1.97669 -3.91392,2.62186 -8,9.7931 -8,14.04033 V 521 h 17 c 16.96462,0 16.99999,-0.005 16.99442,-2.25 z m 48.99911,44.31566 c -7.91354,-2.40719 -15.47558,-9.27479 -19.71222,-17.902 C 455.68996,539.88683 455.5,538.64625 455.5,527 c 0,-11.92667 0.14263,-12.79813 3.10966,-19 6.14877,-12.85254 15.33412,-18.9895 28.39034,-18.96827 8.40425,0.0137 13.73949,1.90263 18.25,6.46151 l 2.75,2.77949 V 479.13636 460 h 8.5 8.5 l 0.002,17.25 c 8.9e-4,9.4875 0.29871,32.4375 0.66184,51 L 526.32366,562 H 518.66183 511 l -0.004,-5.75 -0.004,-5.75 -1.89729,3.11144 c -2.4573,4.02979 -7.08598,7.28056 -12.82658,9.00822 -4.89747,1.47392 -14.15328,1.69981 -18.27512,0.446 z m 22.72374,-15.18617 c 1.7695,-0.55715 4.357,-2.36748 5.75,-4.02297 C 508.92315,540.93788 509,540.40586 509,526.32327 V 511.8 l -3.29692,-3.29692 c -7.61125,-7.61125 -23.17132,-7.07974 -29.53378,1.00882 -4.61926,5.87244 -6.38295,17.7826 -4.02185,27.1594 2.76972,10.99954 14.55201,15.62184 28.56982,11.20819 z m 51.70387,13.73603 c -8.28453,-3.85763 -12.09818,-10.21148 -12.90519,-21.50109 -0.26005,-3.63794 -0.71216,-16.17693 -1.00469,-27.86443 L 537.97938,491 H 546.48969 555 l 0.0201,19.25 c 0.0261,25.02072 0.91208,31.37611 4.86916,34.92921 4.23016,3.79831 10.58215,4.59054 16.34988,2.0392 3.55449,-1.57232 4.95339,-2.96795 6.8627,-6.84665 2.33837,-4.75031 2.39233,-5.42644 2.16455,-27.12176 L 585.0328,491 H 593.5164 602 l 0.003,16.75 c 0.002,9.2125 0.2977,25.1875 0.65811,35.5 l 0.65528,18.75 h -7.62367 -7.62366 l -0.66902,-5.04328 -0.66901,-5.04328 -1.72225,2.79328 c -0.94724,1.5363 -2.59652,3.56893 -3.66508,4.51695 -5.81851,5.16217 -20.38578,6.36687 -28.92239,2.39185 z m 82.30906,-0.0357 c -7.34249,-3.0194 -11.97398,-6.56548 -16.23107,-12.42723 -5.22668,-7.19684 -6.78794,-13.47861 -6.34226,-25.51839 0.33896,-9.15684 0.73097,-10.9641 3.67555,-16.94539 6.5272,-13.25862 22.29534,-20.56703 38.1652,-17.68927 7.40748,1.34323 10.86524,2.92378 16.65759,7.61423 4.22189,3.41875 9.34447,12.09739 9.34518,15.83254 3.7e-4,1.91621 -0.54313,2.04288 -8.12046,1.89253 l -8.12086,-0.16113 -1.80438,-4.0302 c -2.12697,-4.75075 -7.83294,-8.15055 -13.66485,-8.14196 -13.03718,0.0192 -19.29604,7.76643 -19.28426,23.87015 0.007,9.31509 1.24477,14.07991 4.73616,18.22919 3.43754,4.08529 7.88681,5.89601 14.47614,5.89134 6.02109,-0.004 10.3792,-2.1797 13.89604,-6.93648 2.19046,-2.96275 2.51206,-3.05978 10.14153,-3.05978 7.70337,0 7.86434,0.0503 7.2081,2.25 -2.51883,8.44327 -11.71701,17.85688 -19.7911,20.25463 -7.70919,2.28938 -18.05935,1.90563 -24.94225,-0.92478 z M 828,561.78683 c -7.69925,-2.95225 -16.86831,-12.23632 -20.03553,-20.28683 -1.9124,-4.86097 -2.36596,-7.89839 -2.38921,-16 -0.0262,-9.13283 0.23884,-10.56366 3.05649,-16.5 3.54407,-7.46679 9.37452,-13.6308 16.15521,-17.07945 6.80149,-3.45922 19.52584,-3.91144 27.36013,-0.97238 13.21286,4.95685 20.46615,15.94747 22.30761,33.80183 l 0.64461,6.25 h -26.04965 c -29.10846,0 -27.16627,-0.5607 -25.00565,7.21895 1.32392,4.76697 5.46501,9.67796 9.62718,11.41702 3.82347,1.59755 12.07772,1.79019 15.81544,0.36911 C 852.4639,548.87313 858,543.19749 858,541.27714 858,540.35525 860.07204,540 865.44897,540 h 7.44898 l -1.56665,3.75 c -3.78997,9.07188 -10.55584,15.66232 -19.20703,18.709 -6.2978,2.2179 -17.39345,1.90874 -24.12427,-0.67217 z m 29,-44.14347 c 0,-4.82681 -3.93673,-11.60387 -8.00932,-13.78802 -5.03142,-2.69838 -13.71726,-2.50504 -18.0928,0.40273 -3.72967,2.47857 -7.89933,9.71578 -7.89534,13.70382 l 0.003,2.53811 16.99746,0.23607 16.997,0.23607 z m 55.70696,44.82362 c -5.22657,-1.91821 -9.55011,-5.16229 -11.80219,-8.85554 l -1.89729,-3.11144 -0.004,5.75 L 899,562 h -6.34497 -6.34497 l -0.65503,-13.65811 c -0.8341,-17.39202 -0.83518,-43.65891 -0.003,-68.43108 L 886.30446,460.5 h 7.84863 7.84862 l -8.5e-4,19.2848 -8.6e-4,19.28479 3.0466,-3.46988 c 4.27792,-4.87228 10.73495,-7.12876 19.9534,-6.97292 12.88959,0.2179 22.29503,6.37244 27.85204,18.22525 2.45481,5.23599 2.64796,6.63398 2.64796,19.1658 0,13.26038 -0.0626,13.64504 -3.28675,20.19736 -3.85532,7.83501 -10.21154,13.91474 -16.94686,16.2097 -5.64743,1.92427 -17.37142,1.94615 -22.55943,0.0421 z M 931.01017,547.75 c 4.94154,-3.36318 6.90667,-6.61231 8.01707,-13.25538 1.95634,-11.70384 -0.99167,-23.0775 -7.21118,-27.82135 -9.2546,-7.05883 -24.71293,-4.95103 -28.39959,3.87239 -1.716,4.10698 -1.9166,22.11276 -0.31079,27.89664 2.05565,7.40412 8.45556,11.26352 18.99644,11.45561 4.27907,0.078 6.38287,-0.42929 8.90805,-2.14791 z M 65,511.5 V 461 h 32.857544 32.857546 l 0.64245,6.14669 C 132.5105,478.1776 135.36178,477 107.5,477 H 83 v 14 14 h 22.10699 c 20.14644,0 22.05075,0.14655 21.47287,1.65248 -0.34876,0.90887 -1.35162,4.50887 -2.22856,8 L 122.75685,521 H 103.28021 83.803575 L 84.151787,541.50025 84.5,562.00049 74.75,562.00025 65,562 Z m 149.77485,15.75 c 0.19117,-19.1125 0.53092,-35.3125 0.75498,-36 0.27811,-0.85329 2.79762,-1.25 7.93879,-1.25 H 231 l 0.0634,6.75 c 0.0519,5.52955 0.24359,6.29807 1.06006,4.25051 2.46181,-6.17374 11.95426,-11.97311 19.62655,-11.99074 L 256,489 v 7.77867 7.77867 l -7.12926,1.12258 c -10.55432,1.6619 -15.08932,5.75185 -16.86125,15.20657 C 231.45427,523.84906 231,534.31156 231,544.13649 V 562 h -8.28637 -8.28638 z M 265,526 v -36 h 7 7 v 5.22784 5.22785 l 2.99879,-3.63805 c 4.49839,-5.45733 10.85221,-8.13553 19.40281,-8.17848 8.76709,-0.044 13.75934,2.13582 17.36321,7.58163 l 2.58633,3.90821 1.44115,-2.37514 c 3.62654,-5.97685 14.31971,-10.22999 23.48279,-9.34012 7.00194,0.67998 10.81776,2.53036 14.10461,6.83964 4.79037,6.2805 5.00706,7.75669 5.57774,37.99791 l 0.54257,28.75129 -8.1876,-10e-4 -8.18759,-10e-4 -0.31241,-25.25 c -0.26392,-21.33151 -0.57234,-25.72415 -1.9874,-28.30531 -4.2194,-7.69645 -17.17247,-7.20241 -21.55807,0.82224 -1.52691,2.79389 -1.8095,6.5951 -2.08031,27.98307 L 323.87324,562 H 315.43662 307 v -25.09887 c 0,-28.96548 -0.44381,-31.05499 -7.01416,-33.02352 -7.59309,-2.27494 -15.08748,1.22678 -16.94582,7.91788 -0.56858,2.04721 -1.03136,14.10595 -1.03444,26.95451 L 282,562 h -8.5 -8.5 z m 437.51596,34.75 c -0.2317,-0.6875 -3.42287,-12.95 -7.09148,-27.25 -3.66861,-14.3 -9.31491,-36.28311 -12.54734,-48.85136 C 679.64471,472.08039 677,461.50539 677,461.14864 677,460.79189 681.28795,460.5 686.52877,460.5 h 9.52878 l 0.9082,3.5 c 0.49952,1.925 4.34352,18.125 8.54224,36 9.48263,40.36992 8.54346,37.08274 9.70941,33.98358 0.5139,-1.36597 4.92546,-18.17133 9.80347,-37.34524 4.87801,-19.17391 9.08478,-35.07732 9.34836,-35.34091 0.26359,-0.26359 4.41589,-0.47925 9.22734,-0.47925 h 8.74808 l 8.6619,32.84091 c 4.76405,18.0625 9.30367,35.05411 10.08804,37.75913 l 1.42614,4.91822 4.83391,-21.91822 c 2.65864,-12.05502 6.43865,-29.00572 8.4,-37.66822 L 789.32073,461 h 8.83964 c 6.5982,0 8.83963,0.3305 8.83963,1.3034 0,1.17519 -21.37865,93.75764 -22.61731,97.9466 -0.44929,1.51946 -1.87025,1.75 -10.78613,1.75 H 763.3279 l -1.74911,-6.25 c -3.65995,-13.07788 -14.61723,-54.30132 -16.31,-61.36143 -0.97284,-4.05743 -1.99379,-7.37789 -2.26879,-7.3788 -0.275,-9.2e-4 -4.54347,16.87151 -9.48549,37.49428 L 724.52901,562 h -10.79589 c -7.74537,0 -10.91493,-0.3532 -11.21716,-1.25 z m -299.48661,-80.5 c 0.0161,-0.4125 2.37864,-5.025 5.25,-10.25 L 413.5,460.5 h 8.6618 c 5.78227,0 8.44179,0.34764 8,1.04573 -0.36399,0.57514 -4.00755,5.18764 -8.09681,10.25 L 414.62999,481 h -5.815 c -3.19824,0 -5.80178,-0.3375 -5.78564,-0.75 z"
         id="path2" />
    </g>
  </g>
</svg>
